<svg width="48" height="48" viewBox="0 0 48 48" fill="none" xmlns="http://www.w3.org/2000/svg">
<path fill-rule="evenodd" clip-rule="evenodd" d="M7 10C6.46957 10 5.96086 10.2107 5.58579 10.5858C5.21071 10.9609 5 11.4696 5 12C5 12.5304 5.21071 13.0391 5.58579 13.4142C5.96086 13.7893 6.46957 14 7 14H41C41.5304 14 42.0391 13.7893 42.4142 13.4142C42.7893 13.0391 43 12.5304 43 12C43 11.4696 42.7893 10.9609 42.4142 10.5858C42.0391 10.2107 41.5304 10 41 10H7ZM5 24C5 23.4696 5.21071 22.9609 5.58579 22.5858C5.96086 22.2107 6.46957 22 7 22H41C41.5304 22 42.0391 22.2107 42.4142 22.5858C42.7893 22.9609 43 23.4696 43 24C43 24.5304 42.7893 25.0391 42.4142 25.4142C42.0391 25.7893 41.5304 26 41 26H7C6.46957 26 5.96086 25.7893 5.58579 25.4142C5.21071 25.0391 5 24.5304 5 24ZM5 36.002C5 35.4716 5.21071 34.9629 5.58579 34.5878C5.96086 34.2127 6.46957 34.002 7 34.002H41C41.5304 34.002 42.0391 34.2127 42.4142 34.5878C42.7893 34.9629 43 35.4716 43 36.002C43 36.5324 42.7893 37.0411 42.4142 37.4162C42.0391 37.7913 41.5304 38.002 41 38.002H7C6.46957 38.002 5.96086 37.7913 5.58579 37.4162C5.21071 37.0411 5 36.5324 5 36.002Z" fill="#1E1E1E"/>
</svg>
