<svg width="48" height="48" viewBox="0 0 48 48" fill="none" xmlns="http://www.w3.org/2000/svg">
<path d="M7.1928 8.39043C7.1928 8.07217 7.31923 7.76694 7.54427 7.5419C7.76931 7.31686 8.07454 7.19043 8.3928 7.19043H9.444C11.1888 7.19043 12.192 8.32563 12.7728 9.45843C13.1688 10.2336 13.4544 11.1792 13.692 12H38.4C38.7708 12.0001 39.1366 12.0862 39.4686 12.2514C39.8006 12.4166 40.0898 12.6566 40.3135 12.9523C40.5372 13.2481 40.6893 13.5917 40.7579 13.9561C40.8265 14.3206 40.8097 14.696 40.7088 15.0528L37.1184 27.7128C36.8328 28.7172 36.2274 29.6011 35.3941 30.2304C34.5608 30.8598 33.545 31.2002 32.5008 31.2H20.3112C19.2583 31.2004 18.2344 30.8545 17.3974 30.2157C16.5604 29.5769 15.9566 28.6806 15.6792 27.6648L14.1384 22.0128C14.1296 21.9875 14.1216 21.9619 14.1144 21.936L11.64 13.5432L11.4 12.7344C11.16 11.904 10.9488 11.1696 10.632 10.5528C10.2504 9.80883 9.9 9.59283 9.4416 9.59283H8.3904C8.07214 9.59283 7.76691 9.4664 7.54187 9.24136C7.31683 9.01631 7.1904 8.71109 7.1904 8.39283M20.4 40.8C21.3548 40.8 22.2705 40.4207 22.9456 39.7456C23.6207 39.0705 24 38.1548 24 37.2C24 36.2452 23.6207 35.3296 22.9456 34.6544C22.2705 33.9793 21.3548 33.6 20.4 33.6C19.4452 33.6 18.5295 33.9793 17.8544 34.6544C17.1793 35.3296 16.8 36.2452 16.8 37.2C16.8 38.1548 17.1793 39.0705 17.8544 39.7456C18.5295 40.4207 19.4452 40.8 20.4 40.8ZM32.4 40.8C33.3548 40.8 34.2705 40.4207 34.9456 39.7456C35.6207 39.0705 36 38.1548 36 37.2C36 36.2452 35.6207 35.3296 34.9456 34.6544C34.2705 33.9793 33.3548 33.6 32.4 33.6C31.4452 33.6 30.5295 33.9793 29.8544 34.6544C29.1793 35.3296 28.8 36.2452 28.8 37.2C28.8 38.1548 29.1793 39.0705 29.8544 39.7456C30.5295 40.4207 31.4452 40.8 32.4 40.8Z" fill="#94A684"/>
</svg>
