<svg width="34" height="34" viewBox="0 0 34 34" fill="none" xmlns="http://www.w3.org/2000/svg">
<path fill-rule="evenodd" clip-rule="evenodd" d="M23.1818 11.3041C23.1818 12.8032 22.5305 14.2409 21.3712 15.3009C20.2119 16.3609 18.6395 16.9564 17 16.9564C15.3605 16.9564 13.7881 16.3609 12.6288 15.3009C11.4695 14.2409 10.8182 12.8032 10.8182 11.3041C10.8182 9.80505 11.4695 8.36737 12.6288 7.30737C13.7881 6.24736 15.3605 5.65186 17 5.65186C18.6395 5.65186 20.2119 6.24736 21.3712 7.30737C22.5305 8.36737 23.1818 9.80505 23.1818 11.3041ZM20.0909 11.3041C20.0909 12.0537 19.7653 12.7725 19.1856 13.3025C18.6059 13.8325 17.8198 14.1303 17 14.1303C16.1802 14.1303 15.3941 13.8325 14.8144 13.3025C14.2347 12.7725 13.9091 12.0537 13.9091 11.3041C13.9091 10.5546 14.2347 9.83574 14.8144 9.30574C15.3941 8.77574 16.1802 8.47799 17 8.47799C17.8198 8.47799 18.6059 8.77574 19.1856 9.30574C19.7653 9.83574 20.0909 10.5546 20.0909 11.3041Z" fill="#94A684"/>
<path fill-rule="evenodd" clip-rule="evenodd" d="M17 0C7.61136 0 0 7.61136 0 17C0 26.3886 7.61136 34 17 34C26.3886 34 34 26.3886 34 17C34 7.61136 26.3886 0 17 0ZM3.09091 17C3.09091 20.23 4.19282 23.2035 6.03964 25.5649C7.33663 23.8617 9.00984 22.4813 10.9286 21.5318C12.8473 20.5822 14.9596 20.0891 17.1005 20.0909C19.2136 20.0889 21.2993 20.5693 23.1987 21.4954C25.0981 22.4215 26.761 23.769 28.0608 25.4351C29.3999 23.6788 30.3015 21.629 30.691 19.4551C31.0806 17.2812 30.9468 15.0458 30.3009 12.9339C29.655 10.8219 28.5155 8.89416 26.9767 7.31006C25.4378 5.72595 23.5438 4.53106 21.4515 3.82424C19.3592 3.11743 17.1286 2.91901 14.9443 3.24541C12.7601 3.57181 10.6849 4.41365 8.89064 5.70126C7.09634 6.98888 5.63444 8.68525 4.6259 10.65C3.61736 12.6148 3.09119 14.7915 3.09091 17ZM17 30.9091C13.807 30.9139 10.7104 29.8154 8.23418 27.7996C9.23089 26.3728 10.5575 25.2078 12.1012 24.4038C13.6449 23.5998 15.3599 23.1806 17.1005 23.1818C18.8192 23.1804 20.5136 23.5892 22.0427 24.374C23.5718 25.1589 24.8917 26.2972 25.8925 27.6945C23.3971 29.7758 20.2494 30.9136 17 30.9091Z" fill="#94A684"/>
</svg>
